<?xml version="1.0" encoding="utf-8"?>
<!-- Generator: Adobe Illustrator 17.1.0, SVG Export Plug-In . SVG Version: 6.00 Build 0)  -->
<!DOCTYPE svg PUBLIC "-//W3C//DTD SVG 1.1//EN" "http://www.w3.org/Graphics/SVG/1.1/DTD/svg11.dtd">
<svg version="1.1" id="Layer_1" xmlns="http://www.w3.org/2000/svg" xmlns:xlink="http://www.w3.org/1999/xlink" x="0px" y="0px"
	 viewBox="0 0 422 84" enable-background="new 0 0 422 84" xml:space="preserve">
<g>
	<g>
		<path fill="#D1232A" d="M18.3,49.1v-48h7.8c9.4,0,13.1,10.2,13.1,24.1c0,14-3.7,24-13,24H18.3z M35.1,25.1c0-11.7-2.4-20.5-9-20.5
			h-4v41h4C32.8,45.6,35.1,36.9,35.1,25.1z"/>
		<path fill="#D1232A" d="M47.6,49.1v-48H64v3.5H51.4v18.1h12.1v3.5H51.4v19.4H64v3.5H47.6z"/>
		<path fill="#D1232A" d="M87.4,49.1L80.7,29H76v20.1h-3.8v-48h8.6c6.1,0,10.5,5.1,10.5,13.9c0,8.6-3.8,12.2-6.8,13.2l7.3,20.9H87.4
			z M87.2,15c0-6.1-2.2-10.4-6.8-10.4H76v21h4.4C85,25.6,87.2,21.2,87.2,15z"/>
		<path fill="#D1232A" d="M115.3,49.1L108.6,29h-4.8v20.1h-3.8v-48h8.6c6.1,0,10.5,5.1,10.5,13.9c0,8.6-3.8,12.2-6.8,13.2l7.3,20.9
			H115.3z M115.1,15c0-6.1-2.2-10.4-6.8-10.4h-4.4v21h4.4C113,25.6,115.1,21.2,115.1,15z"/>
		<path fill="#D1232A" d="M128,49.1v-48h3.8v48H128z"/>
		<path fill="#D1232A" d="M140.2,25.1c0-13.8,3.1-24.8,11.5-24.8c5.4,0,7.6,4.1,9,8.4l-3.3,1.2c-1.2-3.7-2.6-6-5.7-6
			c-5.4,0-7.4,9.4-7.4,21.3s2,21.3,7.4,21.3c3.5,0,4.9-3.2,5.8-7.4l3.4,1.3c-1.2,5-3.7,9.6-9.2,9.6C143.3,50,140.2,38.9,140.2,25.1z
			"/>
		<path fill="#D1232A" d="M186.5,49.1l-10.8-21.9l-3.3,6.3v15.6h-3.8v-48h3.8v26.1l13.3-26.1h4.4L177.8,24L191,49.1H186.5z"/>
		<path fill="#6D6E70" d="M192.7,47.4l2.4-7.4c1.2,1.4,2.8,1.9,4.4,1.9c3,0,5-1.6,5-5.3V1.1h9.1v36c0,9-5.3,12.9-13,12.9
			C197.7,50,195,49.3,192.7,47.4z"/>
		<path fill="#6D6E70" d="M237.9,49.1l-1.4-8.9h-8.9l-1.4,8.9h-9.4l10-48h10.4l10.1,48H237.9z M232,11.2l-3.5,21h6.9L232,11.2z"/>
		<path fill="#6D6E70" d="M248.9,25.1c0-14.3,4.5-24.8,15-24.8c7.8,0,10.5,6.2,12,11.3l-7.2,2.7c-1-3.7-2.2-5.9-4.8-5.9
			c-4.3,0-5.8,7-5.8,16.8s1.4,16.8,5.8,16.8c3,0,4.2-3,4.9-7l7.3,2.7c-1.4,5.5-4.2,12.4-12.2,12.4C253.4,50,248.9,39.4,248.9,25.1z"
			/>
		<path fill="#6D6E70" d="M300.9,49.1l-7.6-18.3l-3,6v12.2h-9.1v-48h9.1v22.2l10.1-22.2h9.9l-11.7,22.6l12.6,25.4H300.9z"/>
		<path fill="#6D6E70" d="M312.3,45.2l4-7.1c1.9,2.5,5,3.8,7.8,3.8c2.9,0,4.8-2.2,4.8-5.3c0-8.5-15.3-8.5-15.3-23
			c0-7.2,4.9-13.4,13.4-13.4c4,0,7.8,1.4,10.4,3.9l-3.5,7c-1.9-1.9-4.1-2.8-6.6-2.8c-2.6,0-4.5,1.9-4.5,4.8
			c0,7.5,15.3,8.5,15.3,22.9c0,8.1-5.3,13.9-13.5,13.9C319.5,50,315.4,48.3,312.3,45.2z"/>
		<path fill="#6D6E70" d="M342.2,25.1c0-14.1,4.4-24.8,15-24.8c10.5,0,15,10.7,15,24.8s-4.5,24.8-15,24.8
			C346.6,50,342.2,39.2,342.2,25.1z M362.9,25.1c0-9.6-1.4-16.8-5.7-16.8c-4.2,0-5.7,7.2-5.7,16.8c0,9.4,1.4,16.8,5.7,16.8
			C361.4,41.9,362.9,34.6,362.9,25.1z"/>
		<path fill="#6D6E70" d="M396.9,49.1l-9.7-25.4v25.4h-9.1v-48h9.1l9.2,24.5V1.1h9.1v48H396.9z"/>
	</g>
	<g>
		<path fill="#231F20" d="M29.8,81.3c-0.2,0.2-0.5,0.4-0.9,0.7c-0.4,0.3-0.8,0.5-1.3,0.7s-1.1,0.4-1.7,0.6c-0.6,0.2-1.3,0.2-1.9,0.2
			c-1.4,0-2.6-0.2-3.6-0.7s-1.9-1.1-2.6-1.9c-0.7-0.8-1.2-1.8-1.5-2.9c-0.3-1.1-0.5-2.2-0.5-3.5c0-1.2,0.2-2.3,0.5-3.5
			c0.3-1.1,0.8-2.1,1.5-3c0.7-0.9,1.5-1.6,2.4-2.1c1-0.5,2.1-0.8,3.4-0.8c0.9,0,1.7,0.2,2.5,0.5c0.8,0.3,1.5,0.8,2.1,1.4v-1.5
			c0.3-0.1,0.6-0.1,0.9-0.1c0.3,0,0.6,0,0.9,0.1v6.7c-0.3,0.1-0.7,0.1-1,0.1c-0.3,0-0.6,0-1-0.1v-1.2c0-0.6-0.1-1.1-0.3-1.6
			c-0.2-0.5-0.5-0.9-0.8-1.3c-0.4-0.4-0.8-0.7-1.4-0.9c-0.6-0.2-1.2-0.3-1.9-0.3c-1,0-1.8,0.2-2.5,0.7c-0.7,0.5-1.2,1-1.7,1.8
			c-0.4,0.7-0.7,1.5-0.9,2.4c-0.2,0.9-0.3,1.7-0.3,2.6c0,1.3,0.2,2.3,0.5,3.2c0.3,0.9,0.8,1.6,1.3,2.2c0.5,0.6,1.2,1,1.9,1.3
			c0.7,0.3,1.4,0.4,2.2,0.4s1.5-0.1,2.1-0.3c0.6-0.2,1.2-0.5,1.7-0.8c0.5-0.3,0.9-0.6,1.3-0.9c0.3-0.3,0.6-0.6,0.8-0.8V81.3z"/>
		<path fill="#231F20" d="M44.5,83.5c-1.6,0-2.9-0.3-3.9-0.9c-1-0.6-1.9-1.3-2.5-2.2c-0.6-0.9-1.1-1.9-1.3-3
			c-0.3-1.1-0.4-2.1-0.4-3.1c0-1,0.1-2.1,0.4-3.1c0.3-1.1,0.7-2.1,1.3-3c0.6-0.9,1.5-1.6,2.5-2.2s2.3-0.9,3.9-0.9c1,0,2,0.1,2.8,0.4
			c0.8,0.3,1.5,0.6,2.1,1.1c0.6,0.5,1.1,1,1.5,1.6c0.4,0.6,0.8,1.3,1,1.9c0.3,0.7,0.4,1.4,0.6,2.1c0.1,0.7,0.2,1.4,0.2,2.1
			c0,0.7-0.1,1.3-0.2,2.1c-0.1,0.7-0.3,1.4-0.6,2.1c-0.3,0.7-0.6,1.3-1,1.9c-0.4,0.6-0.9,1.1-1.5,1.6c-0.6,0.5-1.3,0.8-2.1,1.1
			C46.4,83.4,45.5,83.5,44.5,83.5z M44.5,81.7c0.8,0,1.6-0.2,2.3-0.5c0.7-0.3,1.3-0.8,1.8-1.5s0.9-1.4,1.2-2.3
			c0.3-0.9,0.4-1.9,0.4-3s-0.1-2.1-0.4-3c-0.3-0.9-0.7-1.7-1.2-2.3s-1.1-1.1-1.8-1.5c-0.7-0.3-1.5-0.5-2.3-0.5
			c-0.8,0-1.6,0.2-2.3,0.5c-0.7,0.3-1.3,0.8-1.8,1.5s-0.9,1.4-1.2,2.3c-0.3,0.9-0.4,1.9-0.4,3s0.1,2.1,0.4,3
			c0.3,0.9,0.7,1.7,1.2,2.3s1.1,1.1,1.8,1.5C42.9,81.6,43.6,81.7,44.5,81.7z"/>
		<path fill="#231F20" d="M60.8,81.4V67.3H59c-0.1-0.3-0.1-0.6-0.1-0.8s0-0.6,0.1-0.8H64l4.1,12.3c0.1,0.2,0.1,0.4,0.2,0.6
			c0.1,0.3,0.1,0.5,0.2,0.8s0.2,0.6,0.2,0.8c0.1,0.3,0.1,0.5,0.2,0.7c0-0.2,0.1-0.5,0.2-0.7s0.2-0.6,0.2-0.8s0.1-0.5,0.2-0.8
			c0.1-0.2,0.1-0.4,0.2-0.6l4.1-12.3H79c0.1,0.3,0.1,0.6,0.1,0.8s0,0.6-0.1,0.8h-1.8v14.1H79c0.1,0.3,0.1,0.6,0.1,0.8s0,0.6-0.1,0.8
			h-5.7c-0.1-0.3-0.1-0.6-0.1-0.8s0-0.6,0.1-0.8h1.8V69.6c0-0.4,0-0.8,0-1.3c0-0.5,0-1,0-1.4l-5.2,15.7h-2.1l-5.2-15.6
			c0,0.4,0,0.9,0,1.4c0,0.5,0,0.9,0,1.2v11.8h1.8c0.1,0.3,0.1,0.6,0.1,0.8s0,0.6-0.1,0.8H59c-0.1-0.3-0.1-0.6-0.1-0.8s0-0.6,0.1-0.8
			H60.8z"/>
		<path fill="#231F20" d="M86.7,81.4V67.3h-1.8c-0.1-0.3-0.1-0.6-0.1-0.8s0-0.6,0.1-0.8H90l4.1,12.3c0.1,0.2,0.1,0.4,0.2,0.6
			c0.1,0.3,0.1,0.5,0.2,0.8s0.2,0.6,0.2,0.8c0.1,0.3,0.1,0.5,0.2,0.7c0-0.2,0.1-0.5,0.2-0.7s0.2-0.6,0.2-0.8s0.1-0.5,0.2-0.8
			c0.1-0.2,0.1-0.4,0.2-0.6l4.1-12.3h5.1c0.1,0.3,0.1,0.6,0.1,0.8s0,0.6-0.1,0.8h-1.8v14.1h1.8c0.1,0.3,0.1,0.6,0.1,0.8
			s0,0.6-0.1,0.8h-5.7c-0.1-0.3-0.1-0.6-0.1-0.8s0-0.6,0.1-0.8h1.8V69.6c0-0.4,0-0.8,0-1.3c0-0.5,0-1,0-1.4l-5.2,15.7h-2.1
			l-5.2-15.6c0,0.4,0,0.9,0,1.4c0,0.5,0,0.9,0,1.2v11.8h1.8c0.1,0.3,0.1,0.6,0.1,0.8s0,0.6-0.1,0.8h-5.5c-0.1-0.3-0.1-0.6-0.1-0.8
			s0-0.6,0.1-0.8H86.7z"/>
		<path fill="#231F20" d="M112.5,67.3h-1.8c-0.1-0.3-0.1-0.6-0.1-0.8s0-0.6,0.1-0.8h5.8c0.1,0.3,0.1,0.6,0.1,0.8s0,0.6-0.1,0.8h-1.8
			V77c0,0.9,0.1,1.7,0.4,2.3c0.3,0.6,0.6,1.1,1,1.4c0.4,0.4,0.9,0.6,1.4,0.7s1,0.2,1.6,0.2c0.5,0,1.1-0.1,1.6-0.2
			c0.5-0.1,1-0.4,1.4-0.7c0.4-0.4,0.8-0.8,1-1.4c0.3-0.6,0.4-1.3,0.4-2.3v-9.7h-1.8c-0.1-0.3-0.1-0.6-0.1-0.8s0-0.6,0.1-0.8h5.7
			c0.1,0.3,0.1,0.6,0.1,0.8s0,0.6-0.1,0.8h-1.8v10c0,0.8-0.1,1.7-0.4,2.4c-0.3,0.8-0.6,1.4-1.2,2s-1.2,1-2,1.4
			c-0.8,0.3-1.8,0.5-2.9,0.5c-1.1,0-2.1-0.2-3-0.5c-0.8-0.3-1.5-0.8-2.1-1.4s-0.9-1.2-1.2-2s-0.4-1.6-0.4-2.4V67.3z"/>
		<path fill="#231F20" d="M135,81.4V67.3h-1.8c-0.1-0.3-0.1-0.6-0.1-0.8s0-0.6,0.1-0.8h4.4l7.1,12.2c0.1,0.1,0.2,0.3,0.3,0.5
			c0.1,0.2,0.2,0.4,0.3,0.7c0.1,0.3,0.2,0.5,0.4,0.8c0.1,0.3,0.2,0.5,0.3,0.8c0-0.2,0-0.5,0-0.8c0-0.3,0-0.6,0-0.9
			c0-0.3,0-0.5,0-0.7c0-0.2,0-0.4,0-0.4V67.3H144c-0.1-0.3-0.1-0.6-0.1-0.8s0-0.6,0.1-0.8h5.8c0.1,0.3,0.1,0.6,0.1,0.8
			s0,0.6-0.1,0.8h-1.9v16h-2.3l-7.4-12.9c-0.1-0.2-0.2-0.4-0.3-0.6c-0.1-0.2-0.2-0.5-0.4-0.7s-0.2-0.5-0.3-0.7
			c-0.1-0.2-0.2-0.5-0.3-0.7c0,0.3,0,0.5,0,0.9c0,0.3,0,0.6,0,1c0,0.3,0,0.6,0,0.9c0,0.3,0,0.5,0,0.6v10.5h1.9
			c0.1,0.3,0.1,0.6,0.1,0.8s0,0.6-0.1,0.8h-5.6c-0.1-0.3-0.1-0.6-0.1-0.8s0-0.6,0.1-0.8H135z"/>
		<path fill="#231F20" d="M157.5,81.4V67.3h-1.8c-0.1-0.3-0.1-0.6-0.1-0.8s0-0.6,0.1-0.8h5.8c0.1,0.3,0.1,0.6,0.1,0.8s0,0.6-0.1,0.8
			h-1.8v14.1h1.8c0.1,0.3,0.1,0.6,0.1,0.8s0,0.6-0.1,0.8h-5.8c-0.1-0.3-0.1-0.6-0.1-0.8s0-0.6,0.1-0.8H157.5z"/>
		<path fill="#231F20" d="M182.2,81.3c-0.2,0.2-0.5,0.4-0.9,0.7c-0.4,0.3-0.8,0.5-1.3,0.7s-1.1,0.4-1.7,0.6
			c-0.6,0.2-1.3,0.2-1.9,0.2c-1.4,0-2.6-0.2-3.6-0.7s-1.9-1.1-2.6-1.9c-0.7-0.8-1.2-1.8-1.5-2.9c-0.3-1.1-0.5-2.2-0.5-3.5
			c0-1.2,0.2-2.3,0.5-3.5c0.3-1.1,0.8-2.1,1.5-3c0.7-0.9,1.5-1.6,2.4-2.1c1-0.5,2.1-0.8,3.4-0.8c0.9,0,1.7,0.2,2.5,0.5
			c0.8,0.3,1.5,0.8,2.1,1.4v-1.5c0.3-0.1,0.6-0.1,0.9-0.1c0.3,0,0.6,0,0.9,0.1v6.7c-0.3,0.1-0.7,0.1-1,0.1c-0.3,0-0.6,0-1-0.1v-1.2
			c0-0.6-0.1-1.1-0.3-1.6c-0.2-0.5-0.5-0.9-0.8-1.3c-0.4-0.4-0.8-0.7-1.4-0.9c-0.6-0.2-1.2-0.3-1.9-0.3c-1,0-1.8,0.2-2.5,0.7
			c-0.7,0.5-1.2,1-1.7,1.8c-0.4,0.7-0.7,1.5-0.9,2.4c-0.2,0.9-0.3,1.7-0.3,2.6c0,1.3,0.2,2.3,0.5,3.2c0.3,0.9,0.8,1.6,1.3,2.2
			c0.5,0.6,1.2,1,1.9,1.3c0.7,0.3,1.4,0.4,2.2,0.4s1.5-0.1,2.1-0.3c0.6-0.2,1.2-0.5,1.7-0.8c0.5-0.3,0.9-0.6,1.3-0.9
			c0.3-0.3,0.6-0.6,0.8-0.8V81.3z"/>
		<path fill="#231F20" d="M189.5,81.4l5.8-16h2.4l5.5,16h1.6c0.1,0.3,0.1,0.6,0.1,0.8s0,0.6-0.1,0.8h-5.9c-0.1-0.3-0.2-0.6-0.2-0.8
			s0.1-0.6,0.2-0.8h2.1l-1.3-3.9h-6.8l-1.3,3.9h2.1c0.1,0.3,0.1,0.6,0.1,0.8s0,0.6-0.1,0.8h-5.6c-0.1-0.3-0.1-0.6-0.1-0.8
			s0-0.6,0.1-0.8H189.5z M199,75.8l-2.8-8.1l-2.8,8.1H199z"/>
		<path fill="#231F20" d="M214.1,81.4V67.4h-4.4V71c-0.3,0.1-0.6,0.1-0.9,0.1c-0.3,0-0.6,0-0.9-0.1v-5.4h14.8V71
			c-0.3,0.1-0.6,0.1-0.9,0.1c-0.3,0-0.6,0-0.9-0.1v-3.6h-4.4v14.1h1.9c0.1,0.3,0.1,0.6,0.1,0.8s0,0.6-0.1,0.8h-6
			c-0.1-0.3-0.1-0.6-0.1-0.8s0-0.6,0.1-0.8H214.1z"/>
		<path fill="#231F20" d="M230.5,81.4V67.3h-1.8c-0.1-0.3-0.1-0.6-0.1-0.8s0-0.6,0.1-0.8h5.8c0.1,0.3,0.1,0.6,0.1,0.8s0,0.6-0.1,0.8
			h-1.8v14.1h1.8c0.1,0.3,0.1,0.6,0.1,0.8s0,0.6-0.1,0.8h-5.8c-0.1-0.3-0.1-0.6-0.1-0.8s0-0.6,0.1-0.8H230.5z"/>
		<path fill="#231F20" d="M249.2,83.5c-1.6,0-2.9-0.3-3.9-0.9c-1-0.6-1.9-1.3-2.5-2.2c-0.6-0.9-1.1-1.9-1.3-3
			c-0.3-1.1-0.4-2.1-0.4-3.1c0-1,0.1-2.1,0.4-3.1c0.3-1.1,0.7-2.1,1.3-3c0.6-0.9,1.5-1.6,2.5-2.2c1-0.6,2.3-0.9,3.9-0.9
			c1,0,2,0.1,2.8,0.4c0.8,0.3,1.5,0.6,2.1,1.1c0.6,0.5,1.1,1,1.5,1.6c0.4,0.6,0.8,1.3,1,1.9s0.4,1.4,0.6,2.1
			c0.1,0.7,0.2,1.4,0.2,2.1c0,0.7-0.1,1.3-0.2,2.1c-0.1,0.7-0.3,1.4-0.6,2.1c-0.3,0.7-0.6,1.3-1,1.9c-0.4,0.6-0.9,1.1-1.5,1.6
			c-0.6,0.5-1.3,0.8-2.1,1.1S250.2,83.5,249.2,83.5z M249.2,81.7c0.8,0,1.6-0.2,2.3-0.5c0.7-0.3,1.3-0.8,1.8-1.5
			c0.5-0.6,0.9-1.4,1.2-2.3c0.3-0.9,0.4-1.9,0.4-3s-0.1-2.1-0.4-3c-0.3-0.9-0.7-1.7-1.2-2.3c-0.5-0.6-1.1-1.1-1.8-1.5
			c-0.7-0.3-1.5-0.5-2.3-0.5s-1.6,0.2-2.3,0.5c-0.7,0.3-1.3,0.8-1.8,1.5c-0.5,0.6-0.9,1.4-1.2,2.3c-0.3,0.9-0.4,1.9-0.4,3
			s0.1,2.1,0.4,3c0.3,0.9,0.7,1.7,1.2,2.3c0.5,0.6,1.1,1.1,1.8,1.5C247.6,81.6,248.4,81.7,249.2,81.7z"/>
		<path fill="#231F20" d="M265.5,81.4V67.3h-1.8c-0.1-0.3-0.1-0.6-0.1-0.8s0-0.6,0.1-0.8h4.4l7.1,12.2c0.1,0.1,0.2,0.3,0.3,0.5
			c0.1,0.2,0.2,0.4,0.3,0.7c0.1,0.3,0.2,0.5,0.4,0.8c0.1,0.3,0.2,0.5,0.3,0.8c0-0.2,0-0.5,0-0.8s0-0.6,0-0.9c0-0.3,0-0.5,0-0.7
			c0-0.2,0-0.4,0-0.4V67.3h-1.9c-0.1-0.3-0.1-0.6-0.1-0.8s0-0.6,0.1-0.8h5.8c0.1,0.3,0.1,0.6,0.1,0.8s0,0.6-0.1,0.8h-1.9v16h-2.3
			l-7.4-12.9c-0.1-0.2-0.2-0.4-0.3-0.6c-0.1-0.2-0.2-0.5-0.4-0.7s-0.2-0.5-0.3-0.7c-0.1-0.2-0.2-0.5-0.3-0.7c0,0.3,0,0.5,0,0.9
			c0,0.3,0,0.6,0,1c0,0.3,0,0.6,0,0.9s0,0.5,0,0.6v10.5h1.9c0.1,0.3,0.1,0.6,0.1,0.8s0,0.6-0.1,0.8h-5.6c-0.1-0.3-0.1-0.6-0.1-0.8
			s0-0.6,0.1-0.8H265.5z"/>
		<path fill="#231F20" d="M297.8,81.4l5.8-16h2.4l5.5,16h1.6c0.1,0.3,0.1,0.6,0.1,0.8s0,0.6-0.1,0.8h-5.9c-0.1-0.3-0.2-0.6-0.2-0.8
			s0.1-0.6,0.2-0.8h2.1l-1.3-3.9h-6.8l-1.3,3.9h2.1c0.1,0.3,0.1,0.6,0.1,0.8s0,0.6-0.1,0.8h-5.6c-0.1-0.3-0.1-0.6-0.1-0.8
			s0-0.6,0.1-0.8H297.8z M307.3,75.8l-2.8-8.1l-2.8,8.1H307.3z"/>
		<path fill="#231F20" d="M320.2,81.4V67.3h-1.8c-0.1-0.3-0.1-0.6-0.1-0.8s0-0.6,0.1-0.8h9c0.8,0,1.5,0.1,2.1,0.4
			c0.6,0.2,1.1,0.6,1.6,1s0.7,1,1,1.5c0.2,0.6,0.3,1.2,0.3,1.9c0,0.5-0.1,0.9-0.2,1.4c-0.1,0.5-0.3,1-0.6,1.4
			c-0.3,0.5-0.6,0.9-1.1,1.2c-0.5,0.4-1,0.6-1.7,0.7l3.3,6.1h1.8c0.1,0.3,0.1,0.6,0.1,0.8s0,0.6-0.1,0.8h-3.6l-3.8-7.7h-4v6h2.2
			c0.1,0.3,0.1,0.6,0.1,0.8s0,0.6-0.1,0.8h-6.1c-0.1-0.3-0.1-0.6-0.1-0.8s0-0.6,0.1-0.8H320.2z M326.6,73.6c1,0,1.9-0.2,2.5-0.7
			s0.9-1.3,0.9-2.4c0-1.1-0.3-1.8-0.9-2.3c-0.6-0.5-1.4-0.7-2.4-0.7h-4.3v6.2H326.6z"/>
		<path fill="#231F20" d="M344.7,81.4V67.4h-4.4V71c-0.3,0.1-0.6,0.1-0.9,0.1c-0.3,0-0.6,0-0.9-0.1v-5.4h14.8V71
			c-0.3,0.1-0.6,0.1-0.9,0.1c-0.3,0-0.6,0-0.9-0.1v-3.6h-4.4v14.1h1.9c0.1,0.3,0.1,0.6,0.1,0.8s0,0.6-0.1,0.8h-6
			c-0.1-0.3-0.1-0.6-0.1-0.8s0-0.6,0.1-0.8H344.7z"/>
		<path fill="#231F20" d="M361.1,81.4V67.3h-1.8c-0.1-0.3-0.1-0.6-0.1-0.8s0-0.6,0.1-0.8h5.8c0.1,0.3,0.1,0.6,0.1,0.8s0,0.6-0.1,0.8
			h-1.8v14.1h1.8c0.1,0.3,0.1,0.6,0.1,0.8s0,0.6-0.1,0.8h-5.8c-0.1-0.3-0.1-0.6-0.1-0.8s0-0.6,0.1-0.8H361.1z"/>
		<path fill="#231F20" d="M371.5,76.8c0.3-0.1,0.7-0.1,1-0.1c0.3,0,0.6,0,0.9,0.1v1c0,0.5,0.1,1,0.4,1.4s0.6,0.9,1,1.2
			c0.4,0.4,1,0.6,1.6,0.8s1.4,0.3,2.2,0.3c1.3,0,2.3-0.3,3-0.8c0.7-0.5,1.1-1.2,1.1-2.1c0-0.5-0.1-0.9-0.3-1.2
			c-0.2-0.3-0.4-0.6-0.7-0.9c-0.3-0.3-0.6-0.5-1.1-0.7c-0.4-0.2-0.9-0.3-1.3-0.5l-3.8-1c-0.5-0.1-0.9-0.3-1.4-0.5
			c-0.4-0.2-0.8-0.5-1.2-0.9c-0.3-0.3-0.6-0.7-0.8-1.2s-0.3-1-0.3-1.6c0-0.8,0.2-1.6,0.5-2.2c0.3-0.6,0.7-1.1,1.2-1.6
			c0.5-0.4,1.1-0.7,1.8-1c0.7-0.2,1.4-0.3,2.2-0.3c1.2,0,2.2,0.2,3,0.6c0.8,0.4,1.4,0.9,1.8,1.5v-1.7c0.3-0.1,0.6-0.1,0.9-0.1
			c0.3,0,0.6,0,0.9,0.1v5.9c-0.3,0.1-0.6,0.1-0.9,0.1c-0.3,0-0.6,0-0.9-0.1v-0.8c0-0.5-0.1-0.9-0.3-1.4c-0.2-0.4-0.5-0.8-0.9-1.2
			s-0.9-0.6-1.4-0.8c-0.6-0.2-1.2-0.3-2-0.3c-1.1,0-1.9,0.2-2.6,0.7c-0.7,0.5-1,1.2-1,2.2c0,0.7,0.2,1.2,0.6,1.6
			c0.4,0.4,1,0.7,1.9,0.9l3.8,1c0.7,0.2,1.4,0.4,1.9,0.7c0.6,0.3,1.1,0.6,1.5,1c0.4,0.4,0.7,0.9,0.9,1.5c0.2,0.6,0.3,1.2,0.3,2
			s-0.2,1.4-0.5,2c-0.3,0.6-0.8,1.1-1.3,1.5c-0.6,0.4-1.2,0.7-2,0.9c-0.8,0.2-1.6,0.3-2.5,0.3c-1.3,0-2.4-0.2-3.3-0.6
			c-0.9-0.4-1.6-0.9-2.1-1.6v1.8c-0.3,0.1-0.6,0.1-0.9,0.1c-0.3,0-0.6,0-0.9-0.1V76.8z"/>
		<path fill="#231F20" d="M396.8,81.4V67.4h-4.4V71c-0.3,0.1-0.6,0.1-0.9,0.1c-0.3,0-0.6,0-0.9-0.1v-5.4h14.8V71
			c-0.3,0.1-0.6,0.1-0.9,0.1c-0.3,0-0.6,0-0.9-0.1v-3.6H399v14.1h1.9c0.1,0.3,0.1,0.6,0.1,0.8s0,0.6-0.1,0.8h-6
			c-0.1-0.3-0.1-0.6-0.1-0.8s0-0.6,0.1-0.8H396.8z"/>
	</g>
	<linearGradient id="SVGID_1_" gradientUnits="userSpaceOnUse" x1="1.0769" y1="57.2308" x2="422.6154" y2="57.2308">
		<stop  offset="0" style="stop-color:#FFFFFF"/>
		<stop  offset="1.214899e-02" style="stop-color:#ECECEC"/>
		<stop  offset="3.934883e-02" style="stop-color:#C7C7C7"/>
		<stop  offset="6.977377e-02" style="stop-color:#A5A5A5"/>
		<stop  offset="0.1032" style="stop-color:#8A8A8A"/>
		<stop  offset="0.1406" style="stop-color:#737373"/>
		<stop  offset="0.1839" style="stop-color:#626262"/>
		<stop  offset="0.2367" style="stop-color:#555555"/>
		<stop  offset="0.3091" style="stop-color:#4E4E4E"/>
		<stop  offset="0.4925" style="stop-color:#4D4D4D"/>
		<stop  offset="0.6942" style="stop-color:#4E4E4E"/>
		<stop  offset="0.7668" style="stop-color:#555555"/>
		<stop  offset="0.8186" style="stop-color:#616161"/>
		<stop  offset="0.8605" style="stop-color:#727272"/>
		<stop  offset="0.8963" style="stop-color:#888888"/>
		<stop  offset="0.9281" style="stop-color:#A3A3A3"/>
		<stop  offset="0.9568" style="stop-color:#C3C3C3"/>
		<stop  offset="0.9823" style="stop-color:#E8E8E8"/>
		<stop  offset="0.9962" style="stop-color:#FFFFFF"/>
	</linearGradient>
	<line fill="none" stroke="url(#SVGID_1_)" stroke-width="2" stroke-miterlimit="10" x1="1.1" y1="57.2" x2="422.6" y2="57.2"/>
</g>
</svg>
